<mxfile host="app.diagrams.net" modified="2022-09-23T08:45:22.745Z" agent="5.0 (Macintosh; Intel Mac OS X 10_15_7) AppleWebKit/537.36 (KHTML, like Gecko) Chrome/105.0.0.0 Safari/537.36" etag="5cCXUazykMhXkjNzE2aK" version="20.3.3" type="github">
  <diagram id="9nKrBypH5ce_UfjEaspR" name="第 1 页">
    <mxGraphModel dx="2916" dy="1161" grid="1" gridSize="10" guides="1" tooltips="1" connect="1" arrows="1" fold="1" page="1" pageScale="1" pageWidth="850" pageHeight="1100" math="0" shadow="0">
      <root>
        <mxCell id="0" />
        <mxCell id="1" parent="0" />
        <mxCell id="DQxT8wMaponIGlQXTPVj-1" value="输入数据" style="ellipse;whiteSpace=wrap;html=1;" vertex="1" parent="1">
          <mxGeometry x="180" y="130" width="290" height="160" as="geometry" />
        </mxCell>
        <mxCell id="DQxT8wMaponIGlQXTPVj-2" value="" style="rounded=0;whiteSpace=wrap;html=1;" vertex="1" parent="1">
          <mxGeometry x="-140" y="340" width="190" height="340" as="geometry" />
        </mxCell>
        <mxCell id="DQxT8wMaponIGlQXTPVj-3" value="" style="rounded=0;whiteSpace=wrap;html=1;" vertex="1" parent="1">
          <mxGeometry x="-120" y="360" width="150" height="70" as="geometry" />
        </mxCell>
        <mxCell id="DQxT8wMaponIGlQXTPVj-4" value="模型" style="rounded=0;whiteSpace=wrap;html=1;" vertex="1" parent="1">
          <mxGeometry x="-120" y="475" width="150" height="70" as="geometry" />
        </mxCell>
        <mxCell id="DQxT8wMaponIGlQXTPVj-5" value="输出适配" style="rounded=0;whiteSpace=wrap;html=1;" vertex="1" parent="1">
          <mxGeometry x="-120" y="590" width="150" height="70" as="geometry" />
        </mxCell>
        <mxCell id="DQxT8wMaponIGlQXTPVj-6" value="输入适配器" style="text;html=1;strokeColor=none;fillColor=none;align=center;verticalAlign=middle;whiteSpace=wrap;rounded=0;" vertex="1" parent="1">
          <mxGeometry x="-95" y="360" width="100" height="30" as="geometry" />
        </mxCell>
        <mxCell id="DQxT8wMaponIGlQXTPVj-7" value="目标数据" style="rounded=1;whiteSpace=wrap;html=1;" vertex="1" parent="1">
          <mxGeometry x="-110" y="390" width="60" height="30" as="geometry" />
        </mxCell>
        <mxCell id="DQxT8wMaponIGlQXTPVj-8" value="特征提取" style="rounded=1;whiteSpace=wrap;html=1;" vertex="1" parent="1">
          <mxGeometry x="-40" y="390" width="60" height="30" as="geometry" />
        </mxCell>
        <mxCell id="DQxT8wMaponIGlQXTPVj-9" value="" style="endArrow=classic;html=1;rounded=0;exitX=0.5;exitY=1;exitDx=0;exitDy=0;entryX=0.5;entryY=0;entryDx=0;entryDy=0;" edge="1" parent="1" source="DQxT8wMaponIGlQXTPVj-3" target="DQxT8wMaponIGlQXTPVj-4">
          <mxGeometry width="50" height="50" relative="1" as="geometry">
            <mxPoint x="270" y="610" as="sourcePoint" />
            <mxPoint x="320" y="560" as="targetPoint" />
          </mxGeometry>
        </mxCell>
        <mxCell id="DQxT8wMaponIGlQXTPVj-10" value="" style="endArrow=classic;html=1;rounded=0;exitX=0.5;exitY=1;exitDx=0;exitDy=0;entryX=0.5;entryY=0;entryDx=0;entryDy=0;" edge="1" parent="1" source="DQxT8wMaponIGlQXTPVj-4" target="DQxT8wMaponIGlQXTPVj-5">
          <mxGeometry width="50" height="50" relative="1" as="geometry">
            <mxPoint x="-35" y="440" as="sourcePoint" />
            <mxPoint x="-35" y="485" as="targetPoint" />
          </mxGeometry>
        </mxCell>
        <mxCell id="DQxT8wMaponIGlQXTPVj-11" value="" style="edgeStyle=elbowEdgeStyle;elbow=horizontal;endArrow=classic;html=1;rounded=0;entryX=0;entryY=0.5;entryDx=0;entryDy=0;exitX=0.5;exitY=1;exitDx=0;exitDy=0;" edge="1" parent="1" source="DQxT8wMaponIGlQXTPVj-12" target="DQxT8wMaponIGlQXTPVj-1">
          <mxGeometry width="50" height="50" relative="1" as="geometry">
            <mxPoint x="-60" y="780" as="sourcePoint" />
            <mxPoint x="470" y="560" as="targetPoint" />
            <Array as="points">
              <mxPoint x="-170" y="680" />
              <mxPoint x="-230" y="780" />
              <mxPoint x="-190" y="530" />
              <mxPoint x="-190" y="480" />
              <mxPoint x="-30" y="460" />
            </Array>
          </mxGeometry>
        </mxCell>
        <mxCell id="DQxT8wMaponIGlQXTPVj-12" value="" style="rounded=0;whiteSpace=wrap;html=1;" vertex="1" parent="1">
          <mxGeometry x="120" y="340" width="190" height="340" as="geometry" />
        </mxCell>
        <mxCell id="DQxT8wMaponIGlQXTPVj-13" value="" style="rounded=0;whiteSpace=wrap;html=1;" vertex="1" parent="1">
          <mxGeometry x="140" y="360" width="150" height="70" as="geometry" />
        </mxCell>
        <mxCell id="DQxT8wMaponIGlQXTPVj-14" value="模型" style="rounded=0;whiteSpace=wrap;html=1;" vertex="1" parent="1">
          <mxGeometry x="140" y="475" width="150" height="70" as="geometry" />
        </mxCell>
        <mxCell id="DQxT8wMaponIGlQXTPVj-15" value="输出适配" style="rounded=0;whiteSpace=wrap;html=1;" vertex="1" parent="1">
          <mxGeometry x="140" y="590" width="150" height="70" as="geometry" />
        </mxCell>
        <mxCell id="DQxT8wMaponIGlQXTPVj-16" value="输入适配器" style="text;html=1;strokeColor=none;fillColor=none;align=center;verticalAlign=middle;whiteSpace=wrap;rounded=0;" vertex="1" parent="1">
          <mxGeometry x="165" y="360" width="100" height="30" as="geometry" />
        </mxCell>
        <mxCell id="DQxT8wMaponIGlQXTPVj-17" value="目标数据" style="rounded=1;whiteSpace=wrap;html=1;" vertex="1" parent="1">
          <mxGeometry x="150" y="390" width="60" height="30" as="geometry" />
        </mxCell>
        <mxCell id="DQxT8wMaponIGlQXTPVj-18" value="特征提取" style="rounded=1;whiteSpace=wrap;html=1;" vertex="1" parent="1">
          <mxGeometry x="220" y="390" width="60" height="30" as="geometry" />
        </mxCell>
        <mxCell id="DQxT8wMaponIGlQXTPVj-19" value="" style="endArrow=classic;html=1;rounded=0;exitX=0.5;exitY=1;exitDx=0;exitDy=0;entryX=0.5;entryY=0;entryDx=0;entryDy=0;" edge="1" parent="1" source="DQxT8wMaponIGlQXTPVj-13" target="DQxT8wMaponIGlQXTPVj-14">
          <mxGeometry width="50" height="50" relative="1" as="geometry">
            <mxPoint x="530" y="610" as="sourcePoint" />
            <mxPoint x="580" y="560" as="targetPoint" />
          </mxGeometry>
        </mxCell>
        <mxCell id="DQxT8wMaponIGlQXTPVj-20" value="" style="endArrow=classic;html=1;rounded=0;exitX=0.5;exitY=1;exitDx=0;exitDy=0;entryX=0.5;entryY=0;entryDx=0;entryDy=0;" edge="1" parent="1" source="DQxT8wMaponIGlQXTPVj-14" target="DQxT8wMaponIGlQXTPVj-15">
          <mxGeometry width="50" height="50" relative="1" as="geometry">
            <mxPoint x="225" y="440" as="sourcePoint" />
            <mxPoint x="225" y="485" as="targetPoint" />
          </mxGeometry>
        </mxCell>
        <mxCell id="DQxT8wMaponIGlQXTPVj-21" value="" style="shape=flexArrow;endArrow=classic;html=1;rounded=0;exitX=1;exitY=0.5;exitDx=0;exitDy=0;entryX=0;entryY=0.5;entryDx=0;entryDy=0;" edge="1" parent="1" source="DQxT8wMaponIGlQXTPVj-2" target="DQxT8wMaponIGlQXTPVj-12">
          <mxGeometry width="50" height="50" relative="1" as="geometry">
            <mxPoint x="270" y="610" as="sourcePoint" />
            <mxPoint x="320" y="560" as="targetPoint" />
          </mxGeometry>
        </mxCell>
        <mxCell id="DQxT8wMaponIGlQXTPVj-22" value="" style="rounded=0;whiteSpace=wrap;html=1;" vertex="1" parent="1">
          <mxGeometry x="540" y="340" width="190" height="340" as="geometry" />
        </mxCell>
        <mxCell id="DQxT8wMaponIGlQXTPVj-23" value="" style="rounded=0;whiteSpace=wrap;html=1;" vertex="1" parent="1">
          <mxGeometry x="560" y="360" width="150" height="70" as="geometry" />
        </mxCell>
        <mxCell id="DQxT8wMaponIGlQXTPVj-24" value="模型" style="rounded=0;whiteSpace=wrap;html=1;" vertex="1" parent="1">
          <mxGeometry x="560" y="475" width="150" height="70" as="geometry" />
        </mxCell>
        <mxCell id="DQxT8wMaponIGlQXTPVj-25" value="输出适配" style="rounded=0;whiteSpace=wrap;html=1;" vertex="1" parent="1">
          <mxGeometry x="560" y="590" width="150" height="70" as="geometry" />
        </mxCell>
        <mxCell id="DQxT8wMaponIGlQXTPVj-26" value="输入适配器" style="text;html=1;strokeColor=none;fillColor=none;align=center;verticalAlign=middle;whiteSpace=wrap;rounded=0;" vertex="1" parent="1">
          <mxGeometry x="585" y="360" width="100" height="30" as="geometry" />
        </mxCell>
        <mxCell id="DQxT8wMaponIGlQXTPVj-27" value="目标数据" style="rounded=1;whiteSpace=wrap;html=1;" vertex="1" parent="1">
          <mxGeometry x="570" y="390" width="60" height="30" as="geometry" />
        </mxCell>
        <mxCell id="DQxT8wMaponIGlQXTPVj-28" value="特征提取" style="rounded=1;whiteSpace=wrap;html=1;" vertex="1" parent="1">
          <mxGeometry x="640" y="390" width="60" height="30" as="geometry" />
        </mxCell>
        <mxCell id="DQxT8wMaponIGlQXTPVj-29" value="" style="endArrow=classic;html=1;rounded=0;exitX=0.5;exitY=1;exitDx=0;exitDy=0;entryX=0.5;entryY=0;entryDx=0;entryDy=0;" edge="1" parent="1" source="DQxT8wMaponIGlQXTPVj-23" target="DQxT8wMaponIGlQXTPVj-24">
          <mxGeometry width="50" height="50" relative="1" as="geometry">
            <mxPoint x="950" y="610" as="sourcePoint" />
            <mxPoint x="1000" y="560" as="targetPoint" />
          </mxGeometry>
        </mxCell>
        <mxCell id="DQxT8wMaponIGlQXTPVj-30" value="" style="endArrow=classic;html=1;rounded=0;exitX=0.5;exitY=1;exitDx=0;exitDy=0;entryX=0.5;entryY=0;entryDx=0;entryDy=0;" edge="1" parent="1" source="DQxT8wMaponIGlQXTPVj-24" target="DQxT8wMaponIGlQXTPVj-25">
          <mxGeometry width="50" height="50" relative="1" as="geometry">
            <mxPoint x="645" y="440" as="sourcePoint" />
            <mxPoint x="645" y="485" as="targetPoint" />
          </mxGeometry>
        </mxCell>
        <mxCell id="DQxT8wMaponIGlQXTPVj-31" value="" style="shape=flexArrow;endArrow=classic;html=1;rounded=0;exitDx=0;exitDy=0;startArrow=none;" edge="1" parent="1" source="DQxT8wMaponIGlQXTPVj-33">
          <mxGeometry width="50" height="50" relative="1" as="geometry">
            <mxPoint x="470" y="509.5" as="sourcePoint" />
            <mxPoint x="510" y="510" as="targetPoint" />
          </mxGeometry>
        </mxCell>
        <mxCell id="DQxT8wMaponIGlQXTPVj-35" value="" style="shape=waypoint;sketch=0;fillStyle=solid;size=6;pointerEvents=1;points=[];fillColor=none;resizable=0;rotatable=0;perimeter=centerPerimeter;snapToPoint=1;" vertex="1" parent="1">
          <mxGeometry x="360" y="490" width="40" height="40" as="geometry" />
        </mxCell>
        <mxCell id="DQxT8wMaponIGlQXTPVj-36" value="" style="shape=flexArrow;endArrow=none;html=1;rounded=0;exitX=1;exitY=0.5;exitDx=0;exitDy=0;" edge="1" parent="1" source="DQxT8wMaponIGlQXTPVj-12" target="DQxT8wMaponIGlQXTPVj-35">
          <mxGeometry width="50" height="50" relative="1" as="geometry">
            <mxPoint x="310" y="510" as="sourcePoint" />
            <mxPoint x="510" y="510" as="targetPoint" />
          </mxGeometry>
        </mxCell>
        <mxCell id="DQxT8wMaponIGlQXTPVj-34" value="" style="shape=waypoint;sketch=0;fillStyle=solid;size=6;pointerEvents=1;points=[];fillColor=none;resizable=0;rotatable=0;perimeter=centerPerimeter;snapToPoint=1;" vertex="1" parent="1">
          <mxGeometry x="400" y="490" width="40" height="40" as="geometry" />
        </mxCell>
        <mxCell id="DQxT8wMaponIGlQXTPVj-37" value="" style="shape=flexArrow;endArrow=none;html=1;rounded=0;exitDx=0;exitDy=0;startArrow=none;" edge="1" parent="1" source="DQxT8wMaponIGlQXTPVj-35" target="DQxT8wMaponIGlQXTPVj-34">
          <mxGeometry width="50" height="50" relative="1" as="geometry">
            <mxPoint x="380" y="510" as="sourcePoint" />
            <mxPoint x="510" y="510" as="targetPoint" />
          </mxGeometry>
        </mxCell>
        <mxCell id="DQxT8wMaponIGlQXTPVj-33" value="" style="shape=waypoint;sketch=0;fillStyle=solid;size=6;pointerEvents=1;points=[];fillColor=none;resizable=0;rotatable=0;perimeter=centerPerimeter;snapToPoint=1;" vertex="1" parent="1">
          <mxGeometry x="440" y="490" width="40" height="40" as="geometry" />
        </mxCell>
        <mxCell id="DQxT8wMaponIGlQXTPVj-38" value="" style="shape=flexArrow;endArrow=none;html=1;rounded=0;exitDx=0;exitDy=0;startArrow=none;" edge="1" parent="1" source="DQxT8wMaponIGlQXTPVj-34" target="DQxT8wMaponIGlQXTPVj-33">
          <mxGeometry width="50" height="50" relative="1" as="geometry">
            <mxPoint x="420" y="510" as="sourcePoint" />
            <mxPoint x="510" y="510" as="targetPoint" />
          </mxGeometry>
        </mxCell>
      </root>
    </mxGraphModel>
  </diagram>
</mxfile>
